<?xml version="1.0" encoding="UTF-8"?>
<svg id="Layer_2" data-name="Layer 2" xmlns="http://www.w3.org/2000/svg" viewBox="0 0 6990.81 6260.82">
  <defs>
    <style>
      .cls-1, .cls-2, .cls-3 {
        fill: #fff;
      }

      .cls-2 {
        opacity: .4;
      }

      .cls-3 {
        opacity: .5;
      }
    </style>
  </defs>
  <circle class="cls-1" cx="3292.92" cy="3110.98" r="54.74" transform="translate(-491.4 5601.06) rotate(-76.72)"/>
  <path class="cls-1" d="M3293.05,3304.84h-.14c-36.07,0-71.27-9.98-101.8-28.86-29.69-18.36-53.92-44.39-70.07-75.28l1.83-.96c33.24,63.55,98.4,103.03,170.05,103.03h.13v2.07Zm41.95-4.58l-.45-2.02c13.6-3.01,26.9-7.53,39.52-13.44l.88,1.88c-12.76,5.97-26.2,10.54-39.95,13.58Zm47.52-17.32l-.96-1.84c63.62-33.22,103.14-98.4,103.14-170.11v-.53s2.07,0,2.07,0v.54c0,36.1-9.99,71.32-28.89,101.87-18.38,29.7-44.44,53.93-75.36,70.08Zm-265.23-89.79c-5.98-12.76-10.56-26.2-13.61-39.94l2.02-.45c3.02,13.6,7.55,26.89,13.46,39.51l-1.87,.88Zm-18.22-81.88v-.27c0-36.05,9.97-71.24,28.82-101.76,18.33-29.67,44.34-53.9,75.2-70.07l.96,1.83c-63.48,33.25-102.91,98.39-102.91,169.99v.26s-2.07,0-2.07,0Zm381.02-42.29c-3.04-13.59-7.59-26.88-13.52-39.5l1.87-.88c6,12.75,10.59,26.18,13.67,39.93l-2.02,.45Zm-17.24-46.97c-33.27-63.4-98.39-102.79-169.93-102.79h-.4s0-2.07,0-2.07h.4c36.03,0,71.2,9.95,101.7,28.79,29.66,18.31,53.88,44.29,70.06,75.11l-1.83,.96Zm-251.33-84.71l-.88-1.87c12.75-5.99,26.19-10.58,39.93-13.64l.45,2.02c-13.6,3.03-26.89,7.57-39.51,13.49Z"/>
  <path class="cls-1" d="M3293.23,3642.73h-.3c-50.2,0-99.87-6.99-147.64-20.77-46.29-13.35-90.59-33.01-131.68-58.42-81.44-50.37-147.91-121.8-192.22-206.56l2.15-1.13c91.72,175.45,271.58,284.44,469.39,284.44h.3v2.43Zm115.07-12.55l-.52-2.37c37.54-8.31,74.25-20.78,109.1-37.08l1.03,2.2c-35.01,16.37-71.89,28.9-109.6,37.25Zm130.36-47.51l-1.12-2.15c175.62-91.68,284.71-271.59,284.71-469.53v-1.21s2.43,0,2.43,0v1.22c0,99.03-27.41,195.67-79.26,279.45-50.43,81.48-121.92,147.95-206.75,192.23Zm-727.55-246.43c-16.39-35-28.95-71.87-37.31-109.58l2.37-.53c8.33,37.54,20.82,74.24,37.14,109.08l-2.2,1.03Zm-49.93-224.64v-.61c0-50.17,6.98-99.82,20.74-147.57,13.34-46.27,32.97-90.55,58.36-131.63,50.32-81.41,121.68-147.88,206.37-192.21l1.13,2.15c-175.29,91.76-284.18,271.57-284.18,469.25v.61s-2.43,0-2.43,0Zm1048.37-116.34c-8.37-37.53-20.91-74.21-37.26-109.04l2.2-1.03c16.43,34.99,29.03,71.84,37.44,109.54l-2.37,.53Zm-47.51-129.68c-91.8-175.12-271.55-283.91-469.11-283.91h-.91s0-2.43,0-2.43h.91c50.15,0,99.77,6.97,147.5,20.72,46.24,13.32,90.51,32.94,131.57,58.31,81.38,50.27,147.84,121.57,192.2,206.18l-2.15,1.13Zm-693.61-234.08l-1.03-2.2c34.99-16.41,71.86-28.99,109.56-37.37l.53,2.37c-37.53,8.35-74.22,20.86-109.06,37.2Z"/>
  <path class="cls-1" d="M3293.33,3829.7h-.41c-67.85,0-134.99-9.44-199.56-28.07-62.56-18.04-122.44-44.61-177.98-78.96-110.08-68.09-199.92-164.63-259.81-279.19l2.91-1.52c123.97,237.14,367.07,384.46,634.44,384.46h.41v3.28Zm155.53-16.96l-.71-3.21c50.74-11.23,100.36-28.09,147.46-50.11l1.39,2.97c-47.32,22.13-97.17,39.07-148.14,50.34Zm176.19-64.21l-1.52-2.91c237.37-123.91,384.82-367.09,384.82-634.63v-1.64s3.28,0,3.28,0v1.64c0,133.86-37.05,264.47-107.14,377.71-68.16,110.12-164.79,199.97-279.45,259.83Zm-983.37-333.08c-22.16-47.31-39.12-97.14-50.43-148.12l3.21-.71c11.25,50.74,28.14,100.34,50.2,147.43l-2.97,1.39Zm-67.48-303.63v-.82c0-67.81,9.43-134.92,28.04-199.46,18.03-62.53,44.57-122.39,78.88-177.91,68.02-110.04,164.47-199.87,278.94-259.79l1.52,2.91c-236.92,124.02-384.1,367.05-384.1,634.25v.82s-3.28,0-3.28,0Zm1417-157.25c-11.31-50.72-28.26-100.31-50.37-147.38l2.97-1.4c22.21,47.29,39.24,97.1,50.6,148.06l-3.2,.71Zm-64.22-175.27c-124.08-236.7-367.04-383.74-634.06-383.74h-1.23s0-3.28,0-3.28h1.23c67.78,0,134.85,9.42,199.36,28.01,62.5,18.01,122.34,44.52,177.84,78.81,109.99,67.95,199.82,164.31,259.78,278.68l-2.91,1.52Zm-937.49-316.39l-1.39-2.97c47.3-22.18,97.12-39.18,148.09-50.52l.71,3.21c-50.73,11.28-100.32,28.2-147.4,50.28Z"/>
  <path class="cls-1" d="M3291.36,3199.46c-2.13-.04-4.27-.15-6.38-.34l.18-2.06c2.06,.18,4.15,.29,6.23,.33l-.04,2.07Zm-12.71-1.13c-5.25-.85-10.45-2.19-15.45-3.97l.7-1.95c4.88,1.74,9.96,3.05,15.08,3.88l-.33,2.04Zm28.62-.01l-.33-2.04c10.32-1.68,20.15-5.2,29.21-10.44l1.04,1.79c-9.28,5.37-19.35,8.97-29.92,10.69Zm-58.55-10.66c-9.27-5.35-17.42-12.27-24.22-20.56l1.6-1.31c6.65,8.1,14.61,14.86,23.66,20.09l-1.04,1.79Zm101.5-9.23l-1.34-1.58c3.95-3.36,7.63-7.1,10.92-11.12l1.6,1.31c-3.37,4.11-7.13,7.94-11.18,11.38Zm15.05-16.47l-1.69-1.19c1.2-1.7,2.35-3.45,3.41-5.23l1.77,1.07c-1.09,1.81-2.27,3.61-3.49,5.35Zm-149.74-8.05c-1.03-1.85-2-3.77-2.9-5.69l1.88-.87c.87,1.88,1.82,3.74,2.83,5.55l-1.81,1Zm-5.37-11.57c-1.88-4.97-3.32-10.14-4.27-15.37l2.04-.37c.93,5.11,2.34,10.16,4.17,15.01l-1.94,.73Zm165.57-.08l-1.94-.73c3.68-9.75,5.55-20.02,5.55-30.53v-.19h2.07v.19c0,10.77-1.91,21.29-5.68,31.27Zm-169.22-31.17h-2.07v-.1c0-10.73,1.9-21.22,5.65-31.17l1.94,.73c-3.66,9.72-5.52,19.96-5.52,30.45v.1Zm171.41-15.8c-.94-5.11-2.35-10.15-4.19-15l1.93-.74c1.89,4.96,3.33,10.13,4.29,15.36l-2.04,.37Zm-6.61-20.74c-.87-1.88-1.83-3.75-2.83-5.55l1.81-1.01c1.03,1.85,2.01,3.76,2.9,5.68l-1.88,.87Zm-152.49-8.02l-1.77-1.07c1.09-1.82,2.27-3.62,3.49-5.35l1.69,1.19c-1.19,1.7-2.34,3.46-3.41,5.23Zm7.18-10.2l-1.6-1.31c3.36-4.11,7.12-7.95,11.16-11.39l1.34,1.58c-3.95,3.37-7.62,7.11-10.9,11.13Zm133.7-.2c-6.66-8.09-14.62-14.84-23.68-20.06l1.03-1.79c9.27,5.34,17.43,12.25,24.25,20.54l-1.6,1.32Zm-110.08-19.93l-1.04-1.79c9.27-5.38,19.34-8.99,29.91-10.73l.34,2.04c-10.32,1.69-20.15,5.22-29.2,10.47Zm72.25-6.65c-4.89-1.74-9.96-3.03-15.09-3.86l.33-2.04c5.25,.85,10.45,2.18,15.45,3.95l-.69,1.95Zm-21.28-4.63c-2.06-.18-4.15-.29-6.23-.32l.03-2.07c2.12,.03,4.27,.15,6.38,.33l-.18,2.06Z"/>
  <path class="cls-1" d="M3394.61,3744.55l-.33-2.04-60.62-372.07,2.04-.33c31.22-5.09,60.97-15.72,88.4-31.59l1.79-1.04,189.86,328.07-1.79,1.04c-67.4,39.01-140.51,65.13-217.31,77.64l-2.04,.33Zm-56.2-370.7l59.62,365.95c74.88-12.45,146.2-37.93,212.07-75.77l-185.72-320.91c-26.77,15.22-55.68,25.55-85.97,30.73Z"/>
  <path class="cls-1" d="M2650.96,3114.1v-3.41c.03-77.72,13.86-153.78,41.1-226.05l.86-2.27,355.37,133.91-.86,2.27c-11.08,29.41-16.7,60.51-16.7,92.43v.3s-2.43,0-2.43,0v2.24s-377.34,.59-377.34,.59Zm44.79-225.47c-26.3,70.6-39.73,144.79-39.93,220.61l370.06-.58c.26-30.87,5.69-60.97,16.16-89.54l-346.29-130.49Z"/>
  <path class="cls-1" d="M3551.25,3065.63l-.44-2.39c-2.82-15.42-7.07-30.66-12.63-45.29l-.86-2.27,355.04-134.8,.86,2.27c13.71,36.11,24.19,73.69,31.15,111.71l.44,2.39-373.56,68.39Zm-7.67-47.13c4.96,13.45,8.85,27.38,11.56,41.48l364.01-66.64c-6.76-36.11-16.71-71.81-29.61-106.2l-345.96,131.36Z"/>
  <path class="cls-1" d="M3532.57,3000.96l-.44-.94c-2.66-5.71-5.56-11.39-8.62-16.9l-.5-.9,.9-.5,328.5-182.82,.5,.9c7.47,13.41,14.54,27.28,21.02,41.2l.44,.94-.94,.44-340.86,158.58Zm-6.75-17.94c2.74,4.96,5.34,10.06,7.75,15.19l338.05-157.27c-6.19-13.25-12.92-26.44-20.01-39.23l-325.79,181.31Z"/>
  <path class="cls-1" d="M3088.09,2945.05l-.8-.66-290.95-238.08,.66-.8c24.32-29.72,51.48-57.42,80.72-82.33l.79-.67,244.45,286.98-.79,.67c-12.1,10.31-23.34,21.77-33.41,34.08l-.66,.8Zm-288.84-239.02l288.55,236.11c9.76-11.83,20.59-22.88,32.23-32.87l-241.76-283.83c-28.58,24.43-55.16,51.53-79.01,80.59Z"/>
  <path class="cls-1" d="M3317.8,2848.72l-1.21-.11c-6.32-.56-12.76-.89-19.14-1l-1.21-.02,.02-1.21,6.24-376.07,1.21,.02c15.32,.25,30.81,1.06,46.03,2.41l1.21,.11-33.15,375.88Zm-19.1-3.51c5.64,.12,11.31,.41,16.89,.88l32.72-371.04c-14.37-1.24-28.97-2-43.43-2.27l-6.18,372.43Z"/>
  <path class="cls-1" d="M3292.92,3315.29c-27.58,0-54.34-5.4-79.52-16.06-24.33-10.29-46.18-25.02-64.94-43.78-18.76-18.76-33.49-40.61-43.78-64.94-10.65-25.19-16.06-51.94-16.06-79.52s5.4-54.34,16.06-79.52c10.29-24.33,25.02-46.18,43.78-64.94,18.76-18.76,40.61-33.49,64.94-43.78,25.19-10.65,51.94-16.06,79.52-16.06s54.34,5.4,79.52,16.06c24.33,10.29,46.18,25.02,64.94,43.78,18.76,18.76,33.49,40.61,43.78,64.94,10.65,25.19,16.06,51.94,16.06,79.52s-5.4,54.34-16.06,79.52c-10.29,24.33-25.02,46.18-43.78,64.94-18.76,18.76-40.61,33.49-64.94,43.78-25.19,10.65-51.94,16.06-79.52,16.06Zm0-407.25c-111.91,0-202.95,91.04-202.95,202.95s91.04,202.95,202.95,202.95,202.95-91.04,202.95-202.95-91.04-202.95-202.95-202.95Z"/>
  <path class="cls-1" d="M3287.02,2745.14c49.39-.8,97.45,8.1,142.87,26.45,43.86,17.72,83.41,43.47,117.55,76.53,34.14,33.06,61.15,71.76,80.28,115.02,19.8,44.8,30.25,92.55,31.05,141.94,.8,49.39-8.1,97.46-26.45,142.87-17.72,43.86-43.47,83.41-76.53,117.55-33.06,34.14-71.76,61.15-115.02,80.28-44.8,19.8-92.55,30.25-141.94,31.05-49.39,.8-97.45-8.1-142.87-26.45-43.86-17.72-83.41-43.47-117.55-76.53-34.14-33.06-61.15-71.76-80.28-115.02-19.8-44.8-30.25-92.55-31.05-141.94-.8-49.39,8.1-97.45,26.45-142.87,17.72-43.86,43.47-83.41,76.53-117.55,33.06-34.14,71.76-61.15,115.02-80.28,44.8-19.8,92.55-30.25,141.94-31.05Zm11.76,729.27c200.39-3.23,360.8-168.89,357.57-369.29-3.23-200.39-168.89-360.8-369.29-357.57-200.39,3.23-360.8,168.89-357.57,369.29,3.23,200.39,168.89,360.8,369.29,357.57Z"/>
  <path class="cls-1" d="M3292.92,3505.29c-53.23,0-104.87-10.43-153.48-30.99-46.95-19.86-89.12-48.29-125.33-84.5-36.21-36.21-64.64-78.38-84.5-125.33-20.56-48.61-30.99-100.25-30.99-153.48s10.43-104.87,30.99-153.48c19.86-46.95,48.29-89.12,84.5-125.33,36.21-36.21,78.38-64.64,125.33-84.5,48.61-20.56,100.25-30.99,153.48-30.99s104.87,10.43,153.48,30.99c46.95,19.86,89.12,48.29,125.33,84.5,36.21,36.21,64.64,78.38,84.5,125.33,20.56,48.61,30.99,100.25,30.99,153.48s-10.43,104.87-30.99,153.48c-19.86,46.95-48.29,89.12-84.5,125.33-36.21,36.21-78.38,64.64-125.33,84.5-48.61,20.56-100.25,30.99-153.48,30.99Zm0-786c-215.98,0-391.7,175.72-391.7,391.7s175.72,391.7,391.7,391.7,391.7-175.72,391.7-391.7-175.72-391.7-391.7-391.7Z"/>
  <path class="cls-1" d="M3292.92,3293.81c-24.68,0-48.62-4.83-71.16-14.37-21.77-9.21-41.32-22.39-58.11-39.18-16.79-16.79-29.97-36.34-39.18-58.11-9.53-22.54-14.37-46.48-14.37-71.16s4.83-48.62,14.37-71.16c9.21-21.77,22.39-41.32,39.18-58.11,16.79-16.79,36.34-29.97,58.11-39.18,22.54-9.53,46.48-14.37,71.16-14.37s48.62,4.83,71.16,14.37c21.77,9.21,41.32,22.39,58.11,39.18,16.79,16.79,29.97,36.34,39.18,58.11,9.53,22.54,14.37,46.48,14.37,71.16s-4.83,48.62-14.37,71.16c-9.21,21.77-22.39,41.32-39.18,58.11-16.79,16.79-36.34,29.97-58.11,39.18-22.54,9.53-46.48,14.37-71.16,14.37Zm0-364.44c-100.14,0-181.62,81.47-181.62,181.62s81.47,181.62,181.62,181.62,181.62-81.47,181.62-181.62-81.47-181.62-181.62-181.62Z"/>
  <path class="cls-2" d="M3098.51,2921.94l-156.04-113.32h0c16.74-23.05,36.55-43.66,58.88-61.26,22.55-17.77,47.44-32.3,73.99-43.19h0s0,0,0,0l73.1,178.45h0c-9.92,4.07-19.24,9.51-27.72,16.19-8.44,6.65-15.91,14.43-22.22,23.11h0Z"/>
  <path class="cls-2" d="M3356.88,3394.17l60.92,148.58h0c-21.94,8.99-45,14.92-68.52,17.61-23.75,2.72-47.75,2.11-71.32-1.8h0s0-.01,0-.01l26.35-158.4h0c8.8,1.47,17.79,1.69,26.72,.67,8.89-1.02,17.59-3.25,25.86-6.64h0Z"/>
  <g>
    <path class="cls-1" d="M3582.77,3119.52c-.04-.26-.08-.52-.12-.78l-.12-.8,1.58-.25,.25,1.58h0s0,0,0,0l-1.59,.24Z"/>
    <polygon class="cls-1" points="3585.96 3119.03 3585.96 3119.02 3585.64 3117.46 3585.66 3117.45 3585.66 3117.46 3585.98 3119.03 3585.96 3119.03"/>
    <path class="cls-1" d="M3585.93,3119.03l-.25-1.58,1.59-.25,.25,1.58-1.59,.25Zm3.15-.49h0s-.25-1.58-.25-1.58h0s1.59-.25,1.59-.25l.25,1.58-1.6,.25Zm3.16-.5h0s-.25-1.58-.25-1.58h0s1.59-.25,1.59-.25h0s.25,1.58,.25,1.58l-1.59,.25Zm3.15-.49h0s-.25-1.58-.25-1.58h0l1.59-.25h0s.25,1.59,.25,1.59l-1.59,.25Zm3.16-.5h-.01s-.25-1.58-.25-1.58h0s1.59-.25,1.59-.25l.25,1.58-1.59,.25Zm3.15-.49h0s-.25-1.58-.25-1.58h0s1.59-.25,1.59-.25l.25,1.58-1.59,.25Zm3.16-.5h-.01s-.25-1.58-.25-1.58h0s1.59-.25,1.59-.25l.25,1.58-1.59,.25Zm3.15-.49h0s-.25-1.59-.25-1.59h0l1.59-.25h0s.25,1.58,.25,1.58l-1.59,.25Zm3.16-.5h0s-.25-1.58-.25-1.58h0s1.59-.25,1.59-.25l.25,1.58-1.59,.25Zm3.15-.49h0s-.25-1.59-.25-1.59h0l1.59-.25,.25,1.58-1.59,.25Zm3.16-.5h-.01s-.25-1.58-.25-1.58h0s1.59-.25,1.59-.25h0s.25,1.58,.25,1.58l-1.59,.25Zm3.15-.49h0s-.25-1.58-.25-1.58h0s1.58-.25,1.58-.25h0s.25,1.58,.25,1.58l-1.59,.25Zm3.16-.5h-.01s-.25-1.58-.25-1.58h0s1.59-.25,1.59-.25l.25,1.58-1.59,.25Zm3.15-.49h0s-.25-1.59-.25-1.59h0l1.59-.25,.25,1.58-1.59,.25Zm3.16-.5h-.01s-.25-1.58-.25-1.58h0s1.59-.25,1.59-.25l.25,1.58-1.59,.25Zm3.15-.49h0s-.25-1.59-.25-1.59h0l1.59-.25h0s.25,1.58,.25,1.58l-1.59,.25Zm3.16-.5h0s-.25-1.58-.25-1.58h0s1.59-.25,1.59-.25h0s.25,1.58,.25,1.58h0s-1.58,.25-1.58,.25Zm3.15-.49h0s-.25-1.58-.25-1.58h0l1.59-.25h0s.25,1.58,.25,1.58l-1.59,.25Zm3.16-.5h0s-.25-1.58-.25-1.58h0s1.58-.25,1.58-.25h0s.25,1.58,.25,1.58l-1.59,.25Zm3.15-.49h0s-.25-1.58-.25-1.58h0l1.59-.25,.25,1.58-1.59,.25Zm3.16-.5h0s-.25-1.58-.25-1.58h0s1.58-.25,1.58-.25l.25,1.58-1.59,.25Zm3.15-.49h0s-.25-1.59-.25-1.59h0l1.59-.25,.25,1.58-1.59,.25Zm3.16-.5h0s-.25-1.58-.25-1.58h0s1.58-.25,1.58-.25h0s.25,1.58,.25,1.58l-1.59,.25Zm3.15-.5h0s-.25-1.59-.25-1.59h0l1.59-.25h0s.25,1.58,.25,1.58l-1.59,.25Zm3.16-.5h0s-.25-1.58-.25-1.58h0s1.58-.25,1.58-.25l.25,1.58-1.59,.25Zm3.15-.49h0s-.25-1.59-.25-1.59h0l1.59-.25,.25,1.58-1.6,.25Zm3.16-.5h0s-.25-1.58-.25-1.58h0s1.59-.25,1.59-.25l.25,1.58-1.59,.25Zm3.15-.49h0s-.25-1.59-.25-1.59h0l1.59-.25,.25,1.58-1.6,.25Zm3.16-.5h0s-.25-1.58-.25-1.58h0s1.59-.25,1.59-.25h0s.25,1.58,.25,1.58l-1.59,.25Zm3.16-.5h-.01s-.25-1.58-.25-1.58h0l1.59-.25,.25,1.58-1.59,.25Zm3.15-.49h0s-.25-1.58-.25-1.58h0s1.59-.25,1.59-.25h0s.25,1.58,.25,1.58l-1.59,.25Zm3.16-.5h-.01s-.25-1.58-.25-1.58h0l1.59-.25h0s.25,1.58,.25,1.58l-1.58,.25Zm3.15-.49h0s-.25-1.58-.25-1.58h0s1.59-.25,1.59-.25l.25,1.58-1.59,.25Zm3.16-.5h0s-.25-1.58-.25-1.58h0s1.59-.25,1.59-.25l.25,1.58-1.59,.25Zm3.15-.49h0s-.25-1.58-.25-1.58h0s1.59-.25,1.59-.25l.25,1.58-1.6,.25Zm3.16-.5h0s-.25-1.58-.25-1.58h0s1.58-.25,1.58-.25h0s.25,1.58,.25,1.58l-1.59,.25Zm3.15-.49h0s-.25-1.59-.25-1.59h0l1.59-.25h0s.25,1.58,.25,1.58l-1.6,.25Zm3.16-.5h0s-.25-1.58-.25-1.58h0s1.58-.25,1.58-.25h0s.25,1.58,.25,1.58l-1.59,.25Zm3.15-.49h0s-.25-1.58-.25-1.58h0s1.59-.25,1.59-.25l.25,1.58-1.59,.25Zm3.16-.5h0s-.25-1.58-.25-1.58h0s1.58-.25,1.58-.25l.25,1.58-1.59,.25Zm3.15-.49h0s-.25-1.59-.25-1.59h0l1.59-.25,.25,1.58-1.59,.25Zm3.16-.5h0s-.25-1.58-.25-1.58h0s1.58-.25,1.58-.25l.25,1.58-1.59,.25Zm3.15-.49l-.25-1.59h0l1.59-.25,.25,1.58-1.6,.25Zm3.16-.5h0s-.25-1.58-.25-1.58h0s1.58-.25,1.58-.25h0s.25,1.58,.25,1.58l-1.59,.25Zm3.15-.49h0s-.25-1.59-.25-1.59h0l1.59-.25h0s.25,1.58,.25,1.58l-1.59,.25Zm3.16-.5h0s-.25-1.58-.25-1.58h0s1.59-.25,1.59-.25l.25,1.58-1.59,.25Zm3.15-.49h0s-.25-1.59-.25-1.59h0l1.59-.25,.25,1.59-1.6,.25Zm3.16-.5h-.01s-.25-1.58-.25-1.58h0s1.59-.25,1.59-.25l.25,1.58h0s-1.58,.25-1.58,.25Zm3.15-.49h0s-.25-1.58-.25-1.58h0l1.59-.25,.25,1.58-1.59,.25Zm3.15-.49h0s-.25-1.58-.25-1.58h0s1.59-.25,1.59-.25l.25,1.58-1.59,.25Zm3.16-.5h0s-.25-1.59-.25-1.59h0l1.59-.25h0s.25,1.58,.25,1.58l-1.59,.25Zm3.16-.5h0s-.25-1.58-.25-1.58h0s1.59-.25,1.59-.25h0s.25,1.58,.25,1.58l-1.59,.25Zm3.15-.49h0s-.25-1.59-.25-1.59h0l1.59-.25h0s.25,1.58,.25,1.58l-1.59,.25Zm3.16-.49h0s-.25-1.58-.25-1.58h0s1.59-.25,1.59-.25l.25,1.58-1.59,.25Zm3.15-.5h0s-.25-1.59-.25-1.59h0l1.59-.25,.25,1.58-1.59,.25Zm3.16-.5h0s-.25-1.58-.25-1.58h0s1.59-.25,1.59-.25l.25,1.58-1.59,.25Zm3.16-.5h0s-.25-1.58-.25-1.58h0l1.59-.25h0s.25,1.58,.25,1.58l-1.59,.25Zm3.15-.49h0s-.25-1.58-.25-1.58h0s1.59-.25,1.59-.25h0s.25,1.58,.25,1.58l-1.59,.25Zm3.15-.49h0s-.25-1.59-.25-1.59h0l1.59-.25h0s.25,1.58,.25,1.58l-1.59,.25Zm3.15-.49h0s-.25-1.58-.25-1.58h0s1.58-.25,1.58-.25h0s.25,1.58,.25,1.58l-1.59,.25Zm3.16-.5h-.01s-.25-1.58-.25-1.58h0s1.59-.25,1.59-.25l.25,1.58-1.59,.25Zm3.15-.49h0s-.25-1.58-.25-1.58h0s1.58-.25,1.58-.25l.25,1.58-1.59,.25Zm3.16-.5h0s-.25-1.58-.25-1.58h0l1.59-.25,.25,1.58-1.59,.25Zm3.15-.49h0s-.25-1.58-.25-1.58h0s1.59-.25,1.59-.25l.25,1.58-1.59,.25Zm3.16-.5h-.01s-.25-1.58-.25-1.58h0s1.59-.25,1.59-.25h0s.25,1.58,.25,1.58l-1.59,.25Zm3.15-.49h0s-.25-1.58-.25-1.58h0s1.58-.25,1.58-.25h0s.25,1.58,.25,1.58l-1.59,.25Zm3.16-.5h-.01s-.25-1.58-.25-1.58h0s1.59-.25,1.59-.25l.25,1.58-1.59,.25Zm3.15-.49h0s-.25-1.59-.25-1.59h.02s0,0,0,0l.25,1.58h-.02Z"/>
    <path class="cls-1" d="M3797.35,3085.88h0s0,0,0,0l-.25-1.58,1.51-.24,.2,.79c.04,.26,.08,.52,.12,.78l-1.58,.25Z"/>
    <polygon class="cls-1" points="3797.59 3087.43 3797.59 3087.41 3799.18 3087.25 3799.17 3087.27 3797.59 3087.43"/>
    <path class="cls-1" d="M3776.08,3273.51l-1.47-.61h0s1.47,.6,1.47,.6h0Zm.62-1.47l-1.48-.61h0c.21-.53,.41-1.02,.61-1.49h0s0,0,0,0l1.48,.6h0c-.18,.45-.39,.97-.61,1.5h0Zm1.21-2.98l-1.49-.6h0c.19-.48,.38-.97,.59-1.49h0s0,0,0,0l1.48,.59h0c-.22,.55-.41,1.04-.6,1.5h0Zm1.19-2.99h0s-1.49-.58-1.49-.58h0c.18-.46,.37-.95,.58-1.5h0s0,0,0,0l1.49,.59h0c-.18,.48-.38,.98-.58,1.5h0Zm1.16-3l-1.5-.57h0c.18-.48,.37-.99,.57-1.5h0s0,0,0,0v-.03s.01,.04,.01,.04l1.49,.56h0c-.2,.53-.39,1.04-.57,1.51h0Zm1.13-3.01l-1.5-.56h0c.17-.46,.35-.96,.55-1.51h0s1.54,.55,1.54,.55h-.04c-.16,.45-.34,.93-.55,1.51h0Zm1.1-3.02h0s-1.5-.54-1.5-.54h0c.17-.49,.35-.99,.54-1.52h0s1.51,.53,1.51,.53h0c-.16,.47-.34,.97-.54,1.52h0Zm1.07-3.03l-1.51-.53h0c.2-.57,.37-1.07,.53-1.52h0s1.52,.51,1.52,.51h0c-.19,.57-.37,1.07-.53,1.53h0Zm1.05-3.04l-1.52-.51h0c.18-.55,.35-1.03,.51-1.52h-.03s.04-.01,.04-.01h0l1.51,.51h0c-.17,.52-.34,1.04-.51,1.53h0Zm1.02-3.05l-1.52-.5h0c.18-.56,.34-1.06,.49-1.52h-.04s.05-.01,.05-.01h0s1.52,.49,1.52,.49h0c-.19,.58-.35,1.08-.5,1.54h0Zm.99-3.06l-1.53-.49h0c.18-.59,.34-1.08,.48-1.54h0s1.53,.47,1.53,.47h0c-.18,.58-.34,1.08-.48,1.54h0Zm.96-3.07l-1.53-.47h0c.15-.49,.3-.99,.47-1.53h-.03s.04-.01,.04-.01h0l1.53,.46h0c-.15,.51-.31,1.02-.47,1.55h0Zm.94-3.07h0s-1.53-.46-1.53-.46h0c.16-.55,.31-1.06,.45-1.54h0s0,0,0,0l1.53,.45h0c-.16,.56-.31,1.06-.46,1.55h0Zm.9-3.08l-1.54-.44h0c.17-.6,.31-1.09,.44-1.54h-.03s.04-.01,.04-.01h0l1.53,.43h0c-.15,.54-.3,1.06-.44,1.56h0Zm.88-3.09l-1.55-.43h0c.15-.56,.29-1.06,.43-1.55h0s0,0,0,0l1.54,.42h0c-.14,.53-.29,1.05-.43,1.56h0Zm.85-3.1h0s-1.54-.42-1.54-.42h0c.15-.56,.28-1.06,.41-1.56h0s0,0,0,0l1.54,.41h0c-.14,.54-.28,1.07-.41,1.56h0Zm.82-3.11h0s-1.54-.4-1.54-.4h0c.13-.5,.26-1.01,.4-1.55h-.03s.04-.01,.04-.01h0l1.55,.39h0c-.12,.48-.25,1-.4,1.57h0Zm.79-3.12l-1.56-.39h0c.12-.47,.24-.97,.38-1.56h0s1.56,.37,1.56,.37h0c-.12,.51-.25,1.04-.38,1.57h0Zm.76-3.12l-1.56-.37h0c.13-.56,.25-1.07,.37-1.57h0s0,0,0,0l1.55,.36h0c-.12,.51-.24,1.03-.37,1.58h0Zm.73-3.13h0s-1.56-.36-1.56-.36h0c.13-.55,.24-1.07,.35-1.57h0s0,0,0,0l1.56,.35h0c-.11,.5-.23,1.02-.35,1.58h0Zm.7-3.14l-1.57-.34h0c.12-.56,.23-1.07,.34-1.58h0s0,0,0,0l1.63,.35h-.07c-.11,.5-.22,1.03-.34,1.57h0Zm.67-3.14h0s-1.56-.33-1.56-.33h0c.1-.49,.21-1,.32-1.58h0s1.57,.31,1.57,.31h0c-.13,.62-.23,1.12-.33,1.59h0Zm.65-3.15l-1.57-.31h0c.09-.47,.19-.95,.31-1.58h0s0,0,0,0l1.57,.31h0c-.1,.53-.21,1.06-.31,1.59h0Zm.62-3.15h0s-1.57-.3-1.57-.3h0c.11-.57,.2-1.08,.3-1.58h0s0,0,0,0l1.57,.29h0c-.11,.58-.2,1.1-.3,1.59h0Zm.59-3.16h0s-1.57-.29-1.57-.29h0c.09-.48,.18-.98,.28-1.59h0s1.58,.27,1.58,.27h0c-.1,.59-.19,1.1-.28,1.59h0Zm.56-3.16h0s-1.57-.27-1.57-.27h0c.09-.51,.18-1.05,.27-1.59h0s0,0,0,0l1.57,.26h0c-.08,.52-.17,1.04-.27,1.6h0Zm.53-3.17l-1.58-.26h0c.1-.62,.18-1.13,.25-1.59h0s0,0,0,0l1.58,.25h0c-.09,.57-.17,1.09-.25,1.6h0Zm.5-3.18h0l-1.58-.24h0c.07-.5,.15-1.02,.24-1.59h0s0,0,0,0l1.58,.23h0c-.07,.49-.15,1-.24,1.6h0Zm.47-3.18l-1.59-.23h0c.08-.54,.15-1.07,.22-1.6h0s1.59,.21,1.59,.21h0c-.07,.49-.14,1-.22,1.6h0Zm.44-3.18h0s-1.58-.21-1.58-.21h0c.07-.53,.14-1.06,.21-1.6h0s1.58,.2,1.58,.2h0c-.07,.53-.14,1.07-.21,1.61h0Zm.41-3.19l-1.59-.2h0c.05-.42,.1-.82,.15-1.21,0-.05,.01-.11,.02-.16,0-.08,.02-.15,.03-.22h-.04s.06-.01,.06-.01h0l1.58,.19h0c-.02,.14-.03,.27-.05,.4-.04,.35-.09,.78-.15,1.2h0Zm.38-3.19l-1.59-.18h0c.07-.61,.13-1.12,.18-1.6l.02-.06v.05l1.58,.18c-.06,.58-.12,1.1-.18,1.6h0Zm.35-3.19h0s-1.59-.17-1.59-.17h0c.05-.51,.11-1.06,.16-1.6l.02-.05v.05l1.58,.17c-.06,.61-.11,1.12-.17,1.6h0Zm.32-3.2l-1.6-.15h0c.05-.48,.09-.99,.15-1.6h0s0,0,0,0l1.59,.15h0s.02,.02,.02,.02h-.02c-.05,.49-.09,1.01-.15,1.6h0Zm.29-3.2h0l-1.59-.14h0c.04-.52,.09-1.06,.13-1.61h0s0,0,0,0l1.59,.13h0c-.05,.56-.09,1.11-.13,1.61h0Zm.26-3.2l-1.6-.12h0c.04-.59,.08-1.11,.12-1.61h0s1.6,.12,1.6,.12c-.04,.52-.08,1.06-.12,1.61h0Zm.23-3.2h0l-1.59-.11h0c.04-.59,.07-1.11,.11-1.61h0s1.59,.1,1.59,.1h0c-.03,.55-.07,1.09-.1,1.61h0Zm.2-3.21l-1.6-.09h0c.03-.55,.06-1.09,.09-1.61h0s0,0,0,0l1.59,.1c-.03,.5-.06,1.02-.09,1.61h0Zm.17-3.21h0s-1.59-.08-1.59-.08h0c.03-.65,.05-1.15,.08-1.61h0s1.59,.07,1.59,.07c-.03,.57-.05,1.09-.08,1.61h0Zm.14-3.21l-1.6-.06h0c.02-.49,.04-1.01,.06-1.61h0s0,0,0,0l1.59,.07h0c-.02,.51-.04,1.04-.06,1.6h0Zm.12-3.21h0l-1.6-.05h0c.02-.59,.03-1.11,.04-1.61h0s1.6,.04,1.6,.04c-.01,.45-.03,1.03-.05,1.61h0Zm.09-3.21l-1.6-.03h0c.01-.56,.02-1.1,.03-1.61h.02s0,0,0,0h0s1.59,.03,1.59,.03c0,.51-.02,1.06-.03,1.61h0Zm.05-3.21h0l-1.6-.02h0c0-.52,.01-1.06,.02-1.61h0s0,0,0,0l1.6,.02h0c0,.56-.01,1.1-.02,1.61h0Zm.03-3.21h-1.6c0-.34,0-.7,0-1.15v-.46h0s1.6-.01,1.6-.01v.47c0,.46,0,.81,0,1.15h0Zm-1.61-3.2h0c0-.5,0-1.02-.01-1.61h0s1.6-.03,1.6-.03h0c0,.54,0,1.08,.01,1.62h0s0,0,0,0h-1.6Zm-.03-3.2h0c0-.6-.02-1.12-.03-1.61h0s0,0,0,0l1.6-.03h0c0,.5,.02,1.03,.03,1.62h0s0,0,0,0l-1.6,.02Zm-.06-3.2h0c-.02-.63-.03-1.14-.04-1.61h0s0,0,0,0l1.6-.05h0c.01,.51,.03,1.04,.04,1.62h0s-1.6,.05-1.6,.05Zm-.09-3.21h0c-.02-.56-.04-1.1-.06-1.61h0s0,0,0,0l1.59-.06h0s.03,0,.03,0h-.03v.02h0c.02,.56,.04,1.09,.06,1.6h0s-1.6,.06-1.6,.06Zm-.12-3.2h0c-.02-.49-.04-1-.07-1.61h0s1.59-.09,1.59-.09h0s.02,.02,.02,.02h-.02c.02,.52,.05,1.06,.07,1.6h0s-1.6,.08-1.6,.08Zm-.15-3.2h0c-.03-.6-.06-1.12-.09-1.61h0s1.59-.1,1.59-.1h0c.03,.49,.06,1.02,.09,1.62h0s-1.6,.09-1.6,.09Zm-.18-3.2h0c-.03-.52-.07-1.06-.1-1.61h0s0-.01,0-.01l1.59-.1h0c.03,.49,.06,1.02,.1,1.62h0s-1.6,.11-1.6,.11Zm-.21-3.2h0c-.04-.53-.08-1.07-.12-1.61h0s1.59-.13,1.59-.13h0c.04,.59,.08,1.12,.12,1.62h0s-1.6,.12-1.6,.12Zm-.24-3.2h0c-.04-.52-.08-1.04-.13-1.61h0s1.59-.14,1.59-.14h0c.05,.65,.09,1.15,.13,1.62h0s-1.6,.14-1.6,.14Zm-.27-3.2h0c-.04-.5-.09-1.02-.14-1.6v-.02s0,0,0,0v0s1.59-.15,1.59-.15h0c.05,.53,.1,1.07,.15,1.61h0s-1.6,.15-1.6,.15Zm-.3-3.19h0c-.06-.57-.11-1.09-.16-1.6h0s0,0,0,0l1.59-.16h0s0,.01,0,.01c.06,.55,.11,1.09,.16,1.6h0s-1.6,.17-1.6,.17Zm-.33-3.19h0c-.06-.53-.12-1.07-.17-1.6h0s0,0,0,0l1.58-.18h0c.06,.59,.12,1.11,.17,1.61h0s-1.59,.18-1.59,.18Zm-.36-3.19h0c-.06-.55-.13-1.09-.19-1.6h0s1.58-.2,1.58-.2h0c.07,.59,.13,1.11,.19,1.61h0s-1.59,.19-1.59,.19Zm-.39-3.18h0c-.07-.58-.14-1.1-.21-1.6h0s.01-.01,.01-.01l1.58-.21h0s0,0,0,0h0c.07,.56,.14,1.1,.21,1.61h0s0,0,0,0l-1.58,.2Zm-.42-3.18h0c-.07-.54-.14-1.07-.22-1.59h-.02s.03-.03,.03-.03h0s1.57-.21,1.57-.21h0s0,.01,0,.01c.07,.47,.14,.98,.22,1.6h0s-1.59,.22-1.59,.22Zm-.45-3.18h0c-.07-.52-.15-1.06-.23-1.59h0s0,0,0,0l1.58-.24h0c.08,.52,.15,1.04,.23,1.6h0s0,0,0,0l-1.58,.23Z"/>
    <path class="cls-1" d="M3775.46,3274.99l-1.46-.62,.41-.97c.07-.17,.14-.34,.21-.51h0s0,0,0,0l.73,.31h0s.75,.31,.75,.31c-.1,.24-.2,.49-.31,.73v.02s-.33,.72-.33,.72Z"/>
    <polygon class="cls-1" points="3772.54 3273.76 3772.53 3273.75 3773.12 3272.26 3773.14 3272.27 3773.13 3272.28 3772.54 3273.76"/>
    <path class="cls-1" d="M3772.53,3273.75l-1.49-.63,.62-1.48,1.49,.63-.62,1.48Zm-2.94-1.24h0s-1.48-.63-1.48-.63l.62-1.48,1.49,.63h0s-.62,1.48-.62,1.48Zm-2.94-1.24h0s-1.48-.63-1.48-.63l.62-1.48,1.49,.63h0s-.62,1.48-.62,1.48Zm-2.94-1.24h0s-1.48-.62-1.48-.62l.62-1.48,1.49,.63-.62,1.48Zm-2.95-1.24h0s-1.48-.63-1.48-.63l.62-1.48,1.49,.63-.62,1.48Zm-2.94-1.24h0s-1.48-.63-1.48-.63l.62-1.48,1.49,.63h0s-.62,1.48-.62,1.48Zm-2.94-1.24h0s-1.48-.63-1.48-.63l.62-1.48,1.49,.63h0s-.62,1.48-.62,1.48Zm-2.94-1.24h0s-1.48-.63-1.48-.63l.62-1.48,1.49,.63h0s-.62,1.48-.62,1.48Zm-2.94-1.24h0s-1.48-.63-1.48-.63l.62-1.48,1.49,.63h0s-.62,1.48-.62,1.48Zm-2.94-1.24h0s-1.48-.63-1.48-.63l.62-1.48,1.49,.63-.62,1.48Zm-2.94-1.24h0s-1.48-.63-1.48-.63l.62-1.48,1.49,.63h0s-.62,1.48-.62,1.48Zm-2.94-1.24h0s-1.48-.63-1.48-.63l.62-1.48,1.49,.63h0s-.62,1.48-.62,1.48Zm-2.94-1.24h0s-1.48-.63-1.48-.63l.62-1.48,1.49,.62h0s-.62,1.48-.62,1.48Zm-2.94-1.24h0s-1.48-.63-1.48-.63l.62-1.48,1.49,.63h0s-.62,1.48-.62,1.48Zm-2.94-1.24h0s-1.48-.63-1.48-.63l.62-1.48,1.49,.62h0s-.62,1.48-.62,1.48Zm-2.94-1.24h0s-1.48-.63-1.48-.63l.62-1.48,1.49,.63h0s-.62,1.48-.62,1.48Zm-2.94-1.24h0s-1.48-.63-1.48-.63l.62-1.48,1.49,.63-.62,1.48Zm-2.94-1.24h0s-1.48-.63-1.48-.63l.62-1.48,1.49,.63h0s-.62,1.48-.62,1.48Zm-2.94-1.24h0s-1.48-.63-1.48-.63l.62-1.48,1.49,.62h0s-.62,1.48-.62,1.48Zm-2.94-1.24h0s-1.48-.63-1.48-.63l.62-1.48,1.49,.63-.62,1.48Zm-2.94-1.24h0s-1.48-.63-1.48-.63l.62-1.48,1.49,.63h0s-.62,1.48-.62,1.48Zm-2.94-1.24h0s-1.48-.63-1.48-.63l.62-1.48,1.49,.63h0s-.62,1.48-.62,1.48Zm-2.94-1.24h0s-1.48-.63-1.48-.63l.62-1.48,1.49,.62h0s-.62,1.48-.62,1.48Zm-2.94-1.24h0s-1.48-.63-1.48-.63l.62-1.48,1.49,.63h0s-.62,1.48-.62,1.48Zm-2.94-1.24h0s-1.48-.63-1.48-.63l.62-1.48,1.49,.63h0s-.62,1.48-.62,1.48Zm-2.95-1.24h0s-1.48-.63-1.48-.63l.62-1.48,1.49,.63-.62,1.48Zm-2.94-1.24h0s-1.48-.63-1.48-.63l.62-1.48,1.49,.63h0s-.62,1.48-.62,1.48Zm-2.94-1.24h0s-1.48-.62-1.48-.62l.62-1.48,1.49,.63h0s-.62,1.48-.62,1.48Zm-2.95-1.24h0s-1.48-.63-1.48-.63l.62-1.48,1.49,.62h0s-.62,1.48-.62,1.48Zm-2.94-1.24h0s-1.48-.63-1.48-.63l.62-1.48,1.49,.63-.62,1.48Zm-2.94-1.24h0s-1.48-.63-1.48-.63l.62-1.48,1.49,.63-.62,1.48Zm-2.95-1.23h0s-1.48-.63-1.48-.63l.62-1.48,1.49,.63h0s-.62,1.48-.62,1.48Zm-2.94-1.24h0s-1.48-.63-1.48-.63l.62-1.48,1.49,.63-.62,1.48Zm-2.94-1.24h0s-1.48-.63-1.48-.63l.62-1.48,1.49,.63h0s-.62,1.48-.62,1.48Zm-2.94-1.24h0s-1.48-.63-1.48-.63l.62-1.48,1.49,.62h0s-.62,1.48-.62,1.48Zm-2.94-1.24h0s-1.48-.62-1.48-.62l.62-1.48,1.49,.63-.62,1.48Zm-2.94-1.24h0s-1.48-.63-1.48-.63l.62-1.48,1.49,.62-.62,1.48Zm-2.94-1.24h0s-1.48-.63-1.48-.63l.62-1.48,1.49,.63h0s-.62,1.48-.62,1.48Zm-2.94-1.24h0s-1.48-.63-1.48-.63l.62-1.48,1.49,.63h0s-.62,1.48-.62,1.48Zm-2.94-1.24h0s-1.48-.63-1.48-.63l.62-1.48,1.49,.63-.62,1.48Zm-2.94-1.24h0s-1.48-.63-1.48-.63l.62-1.48,1.49,.62h0s-.62,1.48-.62,1.48Zm-2.94-1.24h0s-1.48-.62-1.48-.62l.62-1.48,1.49,.63h0s-.62,1.48-.62,1.48Zm-2.94-1.24h0s-1.48-.63-1.48-.63l.62-1.48,1.49,.63-.62,1.48Zm-2.94-1.24h0s-1.48-.63-1.48-.63l.62-1.48,1.49,.63h0s-.62,1.48-.62,1.48Zm-2.94-1.24h0s-1.48-.63-1.48-.63l.62-1.48,1.49,.63h0s-.62,1.48-.62,1.48Zm-2.94-1.24h0s-1.48-.63-1.48-.63l.62-1.48,1.49,.63-.62,1.48Zm-2.94-1.24h0s-1.48-.63-1.48-.63l.62-1.48,1.49,.62h0s-.62,1.48-.62,1.48Zm-2.94-1.24h0s-1.48-.63-1.48-.63l.62-1.48,1.49,.63h0s-.62,1.48-.62,1.48Zm-2.94-1.24h0s-1.48-.63-1.48-.63l.62-1.48,1.49,.63h0s-.62,1.48-.62,1.48Zm-2.94-1.24h0s-1.48-.63-1.48-.63l.62-1.48,1.49,.63-.62,1.48Zm-2.94-1.24h0s-1.48-.63-1.48-.63l.62-1.48,1.49,.63h0s-.62,1.48-.62,1.48Zm-2.94-1.24h0s-1.48-.63-1.48-.63l.62-1.48,1.49,.63-.62,1.48Zm-2.94-1.24h0s-1.48-.63-1.48-.63l.62-1.48,1.49,.63-.62,1.48Zm-2.94-1.24h0s-1.48-.63-1.48-.63l.62-1.48,1.49,.63h0s-.62,1.48-.62,1.48Zm-2.94-1.24h0s-1.48-.63-1.48-.63l.62-1.48,1.49,.62h0s-.62,1.48-.62,1.48Zm-2.94-1.24h0s-1.48-.63-1.48-.63l.62-1.48,1.49,.63h0s-.62,1.48-.62,1.48Zm-2.94-1.24h0s-1.48-.63-1.48-.63l.62-1.48,1.49,.62h0s-.62,1.48-.62,1.48Zm-2.94-1.24h0s-1.48-.63-1.48-.63l.62-1.48,1.49,.63-.62,1.48Zm-2.94-1.24h0s-1.48-.63-1.48-.63l.62-1.48,1.49,.63-.62,1.48Zm-2.94-1.24h0s-1.48-.62-1.48-.62l.62-1.48,1.49,.63h0s-.62,1.47-.62,1.47Zm-2.94-1.23h0s-1.48-.63-1.48-.63l.62-1.48,1.49,.62-.62,1.48Zm-2.94-1.24h0s-1.48-.63-1.48-.63l.62-1.48,1.49,.63-.62,1.48Zm-2.94-1.24h0s-1.48-.63-1.48-.63l.62-1.48,1.49,.63h0s-.62,1.48-.62,1.48Zm-2.94-1.24h0s-1.48-.63-1.48-.63l.62-1.48,1.49,.62h0s-.62,1.48-.62,1.48Zm-2.94-1.24h0s-1.48-.63-1.48-.63l.62-1.48,1.49,.63-.62,1.48Zm-2.94-1.24h0s-1.48-.62-1.48-.62l.62-1.48,1.49,.63h0s-.62,1.47-.62,1.47Zm-2.94-1.24h0s-1.48-.63-1.48-.63l.62-1.48,1.49,.62h0s-.62,1.48-.62,1.48Zm-2.94-1.24h-.02s0-.02,0-.02l.63-1.47h0s0,.01,0,.01l-.62,1.47Z"/>
    <path class="cls-1" d="M3575.27,3190.74l-1.42-.6,.26-.77c.1-.24,.2-.48,.3-.73l1.48,.61s0,0,0,0h0s-.62,1.48-.62,1.48Z"/>
    <polygon class="cls-1" points="3576.48 3187.82 3576.47 3187.82 3575.01 3187.17 3575.02 3187.16 3575.02 3187.16 3576.48 3187.81 3576.48 3187.82"/>
    <path class="cls-1" d="M3576.48,3187.79h0s-1.48-.59-1.48-.59h0c.18-.47,.38-.96,.57-1.47h0s1.5,.57,1.5,.57h0c-.19,.51-.39,1-.58,1.48h.02s-.04,.01-.04,.01Zm1.13-2.9v-.07l-1.49-.55v-.02h0c.17-.47,.35-.94,.53-1.46h0s1.51,.53,1.51,.53h0c-.17,.49-.35,.99-.54,1.5l-.02,.07Zm1.07-3.01v-.04s-1.51-.52-1.51-.52h0c.17-.5,.34-1,.5-1.49h0s1.52,.5,1.52,.5h0c-.17,.51-.34,1.02-.51,1.51v.05Zm.99-3.05h0s-1.52-.49-1.52-.49h0s0-.01,0-.01c.16-.49,.31-1,.46-1.49h0s1.53,.46,1.53,.46h0c-.15,.49-.3,1-.47,1.52h0Zm.92-3.02h0s-1.53-.45-1.53-.45h0s0,0,0,0h0c.15-.51,.29-1.02,.43-1.52h0s1.55,.42,1.55,.42h0c-.13,.5-.28,1.01-.43,1.53h0Zm.85-3.05h0l-1.54-.41v-.02s0,0,0,0c.13-.49,.26-1,.39-1.51h0s0,0,0,0l1.55,.39h0c-.12,.5-.26,1.02-.39,1.54h0Zm.77-3.07h0l-1.56-.37h0s-.01-.02-.01-.02h.01c.12-.49,.24-1,.35-1.52h0s0,0,0,0l1.56,.35h0c-.12,.52-.24,1.04-.36,1.54h0v.02s0,0,0,0h0Zm.7-3.08h0s-1.56-.34-1.56-.34v-.02c.11-.5,.22-1.01,.32-1.53h0s1.57,.31,1.57,.31h0c-.1,.53-.21,1.05-.32,1.55h0v.03Zm.62-3.12h0s-1.57-.3-1.57-.3h0c.09-.51,.19-1.03,.28-1.55h0s1.58,.27,1.58,.27h0c-.09,.51-.18,1.02-.28,1.57h0Zm.54-3.11l-1.57-.26h0c.08-.52,.17-1.04,.24-1.56h0s0,0,0,0l1.58,.24h0c-.08,.51-.16,1.02-.25,1.57h0Zm.47-3.13l-1.58-.22v-.02c.08-.53,.15-1.05,.21-1.54h0s0,0,0,0l1.58,.2h0c-.06,.52-.13,1.05-.21,1.58h0s0,0,0,0Zm.4-3.15h0l-1.58-.19c.06-.5,.11-1.02,.17-1.56h0s1.6,.16,1.6,.16h0c-.05,.52-.11,1.05-.17,1.58h0Zm.32-3.15h0l-1.59-.14h0c.05-.52,.09-1.05,.13-1.57h0s1.6,.12,1.6,.12h0c-.04,.54-.09,1.08-.13,1.59h0Zm.25-3.15l-1.6-.12c.04-.53,.07-1.06,.09-1.56h0s1.6,.08,1.6,.08h0c-.03,.55-.06,1.09-.1,1.59h0Zm.17-3.16l-1.59-.08h0c.02-.51,.04-1.04,.06-1.56h0s0,0,0,0l1.59,.05h0c-.02,.52-.04,1.06-.06,1.59h0Zm.1-3.16l-1.6-.04c0-.5,.02-1.02,.02-1.57h0s0,0,0,0h1.6v.02c0,.52,0,1.06-.02,1.58h0Zm-1.58-3.15h0c0-.57,0-1.08-.02-1.57h0s0,0,0,0l1.6-.03h0c0,.53,.02,1.07,.02,1.59h0s0,0,0,0h-1.6Zm-.06-3.12h0c-.01-.51-.03-1.02-.06-1.57h0s1.6-.07,1.6-.07h0c.02,.51,.04,1.02,.06,1.59h0s-.02,.02-.02,.02h0s-1.59,.04-1.59,.04Zm-.13-3.13h0s-.01,0-.01,0h.01c-.03-.53-.06-1.05-.09-1.57h0s1.6-.11,1.6-.11h0c.04,.54,.07,1.07,.09,1.59h0s-1.59,.1-1.59,.1Zm-.21-3.13h0c-.04-.53-.08-1.06-.13-1.57h0s1.6-.15,1.6-.15h0c.05,.51,.09,1.02,.13,1.59h0s-1.59,.13-1.59,.13Zm-.28-3.12h0c-.05-.53-.11-1.06-.17-1.57h0s1.59-.19,1.59-.19h0c.06,.54,.12,1.07,.17,1.58h0s-1.59,.17-1.59,.17Zm-.36-3.11h0c-.06-.5-.13-1.01-.21-1.56h0s1.59-.23,1.59-.23h0c.07,.54,.14,1.06,.21,1.58h0s0,0,0,0l-1.58,.2Zm-.43-3.1v-.02s1.58-.24,1.58-.24v.02s0,0,0,0l-1.58,.24Z"/>
  </g>
  <path class="cls-3" d="M3425.2,2931.75l-.92-.64c-30.4-22.23-66.11-36.43-103.29-41.1h-.05s-1.15-.2-1.15-.2l.19-1.13,11.29-89.97,1.18,.23c26.59,3.34,52.67,10.09,77.51,20.06,24.27,9.74,47.3,22.52,68.46,38l1.06,.78-.85,.91-53.44,73.07Zm-102.8-43.87c36.77,4.8,72.1,18.86,102.29,40.69l51.48-70.39c-20.76-15.07-43.31-27.53-67.05-37.06-24.32-9.76-49.84-16.41-75.86-19.77l-10.86,86.53Z"/>
  <path class="cls-3" d="M3501.25,3031.69l-.52-1.04c-13.5-34.93-35.9-66.19-64.79-90.41l-.89-.66,.72-1.01,59.45-70.92,.06,2.55c20.02,16.84,37.91,36.14,53.18,57.38,15.55,21.63,28.29,45.16,37.88,69.95l.4,1.03-1.06,.48-84.42,32.65Zm-63.01-92.5c28.49,24.12,50.66,55.05,64.21,89.58l81.34-31.46c-9.48-24.24-21.99-47.23-37.2-68.39-15.04-20.91-32.64-39.94-52.33-56.57l-56.02,66.83Z"/>
  <path class="cls-3" d="M3600.87,3175.18l-1.11-.19-88.81-18.11,.21-1.11c3.23-15.82,4.72-32.08,4.46-48.37-.34-21.14-3.63-41.99-9.77-61.98l-6.92,.11,7.41-2.39,85.93-26.78,.82,.53,.12,.4c8.92,28.6,13.68,58.43,14.17,88.64,.37,22.94-1.75,45.87-6.3,68.16l-.23,1.11Zm-87.24-20.09l85.45,17.42c4.36-21.8,6.39-44.18,6.03-66.56-.48-29.61-5.1-58.85-13.73-86.92l-83.26,25.95c6.16,20.12,9.45,41.1,9.8,62.38,.26,16.08-1.18,32.13-4.28,47.73Z"/>
  <g>
    <path class="cls-1" d="M3066.99,3505.42l-1.19-.72c-1.55-.9-3.12-1.82-4.67-2.74l1.39-2.33c1.15,.69,2.33,1.37,3.49,2.06l2.04-3.52,2.35,1.36-3.41,5.9Z"/>
    <polygon class="cls-1" points="3051.88 3496.32 3051.86 3496.3 3051.86 3496.29 3053.17 3493.93 3053.2 3493.94 3053.19 3493.95 3051.88 3496.32"/>
    <path class="cls-1" d="M3051.82,3496.28h-.01c-3.08-1.94-6.17-3.93-9.19-5.92h-.01s1.5-2.27,1.5-2.27h.01c2.99,1.99,6.07,3.96,9.13,5.89v.02s0,0,0,0l-1.43,2.29Zm-18.23-12.04h0s-.03,0-.03,0h.01s-.02-.02-.03-.03c-2.96-2.06-5.93-4.18-8.85-6.32h-.01s1.6-2.2,1.6-2.2h.01c2.9,2.13,5.86,4.25,8.8,6.29l.05,.04h0s-1.54,2.23-1.54,2.23Zm-17.62-12.91h-.03s0-.02,0-.02c-2.88-2.21-5.76-4.49-8.57-6.76h-.01s1.71-2.12,1.71-2.12h0c2.8,2.27,5.66,4.53,8.51,6.72h0s.03,.02,.03,.02h0s.08,.1,.08,.1l-.09-.07-1.64,2.13Zm-16.99-13.73h-.01c-2.74-2.34-5.51-4.75-8.24-7.18h-.01s.01-.02,.01-.02l1.79-2.02h.01c2.69,2.41,5.45,4.81,8.19,7.14h.01s0,.02,0,.02l-1.75,2.06Zm-16.31-14.53h-.01c-2.58-2.42-5.18-4.9-7.71-7.39-.05-.05-.09-.09-.14-.14l-.05-.05,1.9-1.94h.01c.06,.07,.12,.13,.18,.19,2.5,2.45,5.08,4.92,7.66,7.33h.02l-.02,.02-1.84,1.97Zm-15.6-15.29h0c-2.52-2.61-5.05-5.27-7.52-7.93h-.01s1.99-1.86,1.99-1.86h0c2.47,2.67,4.98,5.32,7.48,7.89h.01s0,.02,0,.02l-1.94,1.88Zm-14.83-15.97l-.03-.07c-1.12-1.27-2.23-2.54-3.29-3.77-1.28-1.48-2.57-2.99-3.84-4.5h0s2.08-1.76,2.08-1.76h0c1.26,1.5,2.54,3.01,3.81,4.48,1.1,1.27,2.2,2.53,3.28,3.75l.03,.02h-.03s-2.01,1.77-2.01,1.77v.06Zm-14.08-16.76h0s.01-.02,.01-.02h-.01s-.02-.01-.02-.01h0c-2.26-2.82-4.52-5.71-6.71-8.58h0s2.16-1.66,2.16-1.66h0c2.19,2.88,4.44,5.76,6.69,8.56h.01s-.01,.02-.01,.02l-2.11,1.69Zm-13.25-17.37h-.01c-2.12-2.94-4.25-5.94-6.31-8.93h0s2.23-1.55,2.23-1.55h0c2.06,3,4.17,5.98,6.27,8.87v.02s0,0,0,0l-2.18,1.58Zm-12.4-17.98v-.02c-1.99-3.03-3.97-6.13-5.88-9.21h0s2.3-1.44,2.3-1.44h0c1.91,3.08,3.87,6.15,5.83,9.15h.01s0,.03,0,.03h0v.05l-.02-.04-2.25,1.47Zm-11.52-18.56h-.01v-.02c-1.83-3.12-3.66-6.31-5.42-9.48h0s2.37-1.33,2.37-1.33h0c1.76,3.17,3.57,6.33,5.38,9.42h0l.02,.03h-.01s-2.33,1.37-2.33,1.37Zm-10.62-19.08v-.02c-1.63-3.09-3.23-6.23-4.78-9.33l-.2-.41,2.43-1.2h0c.03,.07,.06,.14,.09,.2,.04,.07,.07,.14,.11,.21,1.53,3.08,3.12,6.2,4.74,9.27l.03,.06-.05-.04-2.38,1.26Zm-9.69-19.59h0c-1.53-3.3-3.04-6.65-4.49-9.97h0s.01-.02,.01-.02l2.47-1.08h0c1.44,3.31,2.94,6.64,4.46,9.91h.05l-2.5,1.16Zm-8.73-20.02v-.03s0,0,0,0l2.47-1.01h0s.03-.01,.03-.01v.03s0,0,0,0l-2.5,1.02Z"/>
    <path class="cls-1" d="M2871.93,3282.42c-.68-1.66-1.36-3.36-2.02-5.04l-.5-1.26,1.26-.51,5.05-1.99,.99,2.53-3.79,1.49c.5,1.27,1.01,2.52,1.51,3.76l-2.51,1.02Z"/>
    <polygon class="cls-1" points="2886.53 3272.28 2886.53 3272.26 2885.48 3269.77 2885.5 3269.77 2885.51 3269.78 2886.56 3272.26 2886.53 3272.28"/>
    <path class="cls-1" d="M2886.5,3272.29l-.99-2.53h.01s9.82-3.87,9.82-3.87l.99,2.53h-.01s-9.82,3.87-9.82,3.87Zm19.61-7.72h0s-.99-2.53-.99-2.53h.01s9.82-3.87,9.82-3.87l.99,2.52h-.01s-9.82,3.87-9.82,3.87Zm19.61-7.72h0s-.99-2.53-.99-2.53h.01s9.82-3.87,9.82-3.87l.99,2.53h-.01s-9.82,3.87-9.82,3.87Zm19.61-7.72h0s-.99-2.52-.99-2.52h.01s9.82-3.87,9.82-3.87l.99,2.53h-.01s-9.82,3.87-9.82,3.87Zm19.61-7.72h0s-.99-2.52-.99-2.52h.01s9.82-3.87,9.82-3.87l.99,2.52h-.01s-9.82,3.87-9.82,3.87Zm19.61-7.72h0s-.99-2.53-.99-2.53h.01s9.82-3.87,9.82-3.87l.99,2.52h-.01s-9.82,3.87-9.82,3.87Zm19.61-7.72h0s-.99-2.53-.99-2.53h.01s9.82-3.87,9.82-3.87l.99,2.52h-.01s-9.82,3.87-9.82,3.87Zm19.61-7.72h0s-.99-2.52-.99-2.52h.01s9.82-3.87,9.82-3.87l.99,2.53h-.01s-9.82,3.87-9.82,3.87Zm19.61-7.72h0s-.99-2.52-.99-2.52h.02s0,0,0,0l.99,2.52h-.03Z"/>
    <path class="cls-1" d="M3048.72,3212.85c-.52-1.25-1.04-2.53-1.55-3.79l-3.79,1.49-.99-2.52,6.21-2.44,.61,1.23c.65,1.66,1.34,3.34,2.02,4.99l-2.5,1.05Z"/>
    <polygon class="cls-1" points="3053.25 3223.09 3053.24 3223.06 3053.25 3223.05 3055.67 3221.85 3055.68 3221.87 3055.67 3221.88 3053.25 3223.09"/>
    <path class="cls-1" d="M3156.22,3337.43l-.05-.03h0s1.36-2.35,1.36-2.35l.05,.03h0s-1.36,2.35-1.36,2.35Zm-9.58-5.75h-.01c-3.24-2.07-6.16-4.09-9.2-6.37h-.01s0-.02,0-.02l1.62-2.16h.01c2.98,2.24,5.85,4.23,9.03,6.26h.01s-1.46,2.3-1.46,2.3Zm-17.95-13.28h-.01c-1.29-1.06-2.61-2.15-4.32-3.57-1.41-1.17-2.83-2.37-4.21-3.57h-.02s.01-.02,.01-.02l1.76-2.04h.03s0,.02,0,.02c1.36,1.18,2.76,2.36,4.17,3.53,1.31,1.08,2.85,2.36,4.31,3.56h.01s-.01,.02-.01,.02l-1.71,2.09Zm-16.82-14.6h-.01c-2.71-2.55-5.38-5.18-7.96-7.81h-.03l.02-.02,1.93-1.89h.01c2.55,2.62,5.2,5.22,7.89,7.74h0s-1.86,1.99-1.86,1.99Zm-15.6-15.93h0c-1.21-1.35-2.42-2.72-3.6-4.09-1.25-1.44-2.49-2.91-3.69-4.36h0s0-.02,0-.02l2.08-1.72h0c1.2,1.46,2.43,2.92,3.65,4.33,1.16,1.34,2.36,2.7,3.57,4.04h0s-2.02,1.83-2.02,1.83Zm-14.21-17.19h0c-2.23-2.95-4.43-5.98-6.55-9.02h0l-.02-.02h0l-.04-.06,.06,.04,2.21-1.54h0s0,.01,0,.02c2.09,3.01,4.27,6.01,6.49,8.93h0s-2.16,1.65-2.16,1.65Zm-12.72-18.32h0c-.93-1.47-1.87-2.99-2.8-4.53-1-1.64-1.99-3.33-2.97-5.02v-.02s0-.01,0-.01l2.34-1.35h0c.96,1.67,1.95,3.35,2.94,4.99,.9,1.48,1.83,2.99,2.77,4.47h0s-2.29,1.46-2.29,1.46Zm-11.14-19.32h0c-1.72-3.31-3.38-6.67-4.95-10.01h0s.01-.02,.01-.02l2.45-1.15h0c1.56,3.34,3.2,6.66,4.9,9.91h0s-.01,.02-.01,.02l-2.39,1.25Z"/>
    <polygon class="cls-1" points="3160.05 3344.36 3157.7 3343.01 3159.74 3339.48 3156.21 3337.43 3157.58 3335.08 3163.44 3338.49 3160.05 3344.36"/>
    <polygon class="cls-1" points="3154.79 3353.49 3154.77 3353.49 3152.42 3352.16 3152.43 3352.14 3152.45 3352.14 3154.8 3353.47 3154.79 3353.49"/>
    <path class="cls-1" d="M3070.39,3499.53h-.01s-2.34-1.36-2.34-1.36v-.02s.02,0,.02,0l2.34,1.35-.02,.02Zm5.28-9.12h-.01s-2.34-1.36-2.34-1.36h0s5.28-9.15,5.28-9.15h.01s2.34,1.36,2.34,1.36h0s-5.28,9.15-5.28,9.15Zm10.55-18.25h-.01s-2.34-1.36-2.34-1.36h0s5.28-9.15,5.28-9.15h.01s2.34,1.36,2.34,1.36h0s-5.28,9.15-5.28,9.15Zm10.55-18.25h-.01s-2.34-1.36-2.34-1.36h0s5.28-9.15,5.28-9.15h.01s2.34,1.36,2.34,1.36h0s-5.28,9.15-5.28,9.15Zm10.55-18.25h-.01s-2.34-1.36-2.34-1.36h0s5.28-9.15,5.28-9.15h.01s2.34,1.35,2.34,1.35v.02s-5.29,9.14-5.29,9.14Zm10.55-18.25h-.01s-2.34-1.36-2.34-1.36h0s5.28-9.15,5.28-9.15l2.35,1.36h0s-5.28,9.15-5.28,9.15Zm10.55-18.25h-.01s-2.34-1.36-2.34-1.36h0s5.28-9.15,5.28-9.15h.01s2.34,1.36,2.34,1.36h0s-5.28,9.15-5.28,9.15Zm10.55-18.25h-.01s-2.34-1.36-2.34-1.36h0s5.28-9.15,5.28-9.15h.01s2.34,1.36,2.34,1.36h0s-5.28,9.15-5.28,9.15Zm10.55-18.26h-.01s-2.34-1.36-2.34-1.36h0s5.28-9.15,5.28-9.15h.01s2.34,1.36,2.34,1.36h0s-5.28,9.15-5.28,9.15Z"/>
  </g>
  <path class="cls-1" d="M3537.09,3016.22l-.51-1.25c-5.4-13.69-12.02-27.02-19.68-39.63-7.59-12.5-16.3-24.46-25.9-35.55-9.57-11.06-20.13-21.39-31.41-30.71-11.3-9.34-23.44-17.78-36.1-25.08l-1.28-.64,.75-1.26,95.39-165.42,1.18,.29,.19,.1c10.98,6.33,21.84,13.22,32.29,20.48,10.39,7.22,20.61,14.97,30.36,23.03,9.74,8.06,19.26,16.61,28.28,25.44,9.01,8.81,17.78,18.13,26.06,27.69,8.28,9.57,16.25,19.6,23.7,29.81,7.48,10.26,14.6,20.95,21.18,31.79,6.62,10.91,12.86,22.22,18.52,33.62,5.71,11.49,10.99,23.36,15.7,35.3l.5,1.25-1.25,.52-177.96,70.21Zm-111.13-133.92c12.38,7.23,24.27,15.53,35.35,24.69,11.39,9.42,22.07,19.86,31.73,31.03,9.69,11.2,18.5,23.28,26.17,35.91,7.51,12.36,14.03,25.4,19.38,38.78l174.18-68.73c-4.56-11.45-9.64-22.83-15.11-33.84-5.63-11.33-11.83-22.58-18.41-33.42-6.54-10.77-13.63-21.4-21.06-31.6-7.4-10.15-15.33-20.12-23.56-29.63-8.23-9.51-16.94-18.77-25.9-27.53-8.97-8.77-18.42-17.28-28.11-25.28-9.69-8.01-19.85-15.72-30.18-22.89-10.02-6.96-20.42-13.58-30.94-19.69l-93.54,162.21Z"/>
  <path class="cls-1" d="M3293.19,3439.23h0s0,0,0,0c-31.65,0-63.14-4.58-93.58-13.61h-.01s0-.02,0-.02l.61-2.06h.01c30.24,8.98,61.52,13.53,92.96,13.53,25.19,0,50.37-2.95,74.85-8.76,25.19-5.98,49.77-15.04,73.05-26.92,.07-.04,.14-.07,.21-.11h.01s0,0,0,0l.98,1.92h-.01s-.1,.06-.15,.08l-.07,.04c-11.79,6.01-24.02,11.36-36.36,15.89-12.13,4.46-24.64,8.23-37.18,11.2-12.36,2.94-25.02,5.17-37.63,6.64-12.46,1.45-25.15,2.18-37.72,2.18Zm-232.21-95.95h-.01c-24.3-24.29-44.61-52.26-60.37-83.14-5.69-11.14-10.78-22.69-15.14-34.33-4.29-11.45-7.98-23.26-10.95-35.09-2.93-11.66-5.24-23.62-6.86-35.53-1.6-11.77-2.56-23.77-2.87-35.66h0s2.17-.07,2.17-.07h0c.61,23.84,3.85,47.63,9.66,70.73,5.97,23.75,14.69,46.95,25.92,68.96,15.66,30.69,35.83,58.47,59.98,82.59h.01s-.01,.02-.01,.02l-1.52,1.52Zm502.48-46.42l-1.79-1.23h0c18.54-27.05,32.88-56.68,42.62-88.09,9.75-31.44,14.69-64.01,14.69-96.81,0-17.07-1.37-34.27-4.05-51.1h0s2.14-.35,2.14-.35h0c2.71,16.96,4.08,34.27,4.08,51.46s-1.26,33.09-3.74,49.4c-2.47,16.21-6.18,32.38-11.05,48.06-4.86,15.67-10.94,31.1-18.08,45.86-7.17,14.84-15.53,29.24-24.83,42.81h0Zm-561.17-333.62h-.01s-1.92-.98-1.92-.98h0c7.59-14.97,16.39-29.45,26.16-43.04,9.89-13.76,20.93-26.83,32.82-38.87,24.58-24.88,52.98-45.63,84.42-61.67,12.81-6.54,26.14-12.28,39.6-17.06h.01s.72,2.04,.72,2.04h-.01c-13.37,4.76-26.61,10.46-39.34,16.96-61.86,31.57-111.13,80.88-142.46,142.62h0Zm549.3-50.74h0c-12.77-16.68-27.22-32.17-42.96-46.05-15.45-13.61-32.3-25.83-50.09-36.3-17.6-10.36-36.3-19.11-55.56-26.01-19.23-6.89-39.21-12.01-59.37-15.2h-.01s.35-2.14,.35-2.14c20.3,3.21,40.4,8.36,59.76,15.3,19.39,6.95,38.21,15.76,55.93,26.19,8.9,5.24,17.65,10.96,26.01,17.01,8.42,6.1,16.63,12.66,24.42,19.53,7.86,6.93,15.47,14.33,22.63,21.98,7.23,7.74,14.17,15.94,20.62,24.36h0s-1.72,1.33-1.72,1.33Z"/>
</svg>